<svg width="86" height="79" viewBox="0 0 86 79" fill="none" xmlns="http://www.w3.org/2000/svg">
<g filter="url(#filter0_d)">
<mask id="path-1-inside-1" fill="white">
<path d="M75.3207 6.76171C73.1997 4.61804 70.6805 2.91741 67.9073 1.75715C65.134 0.596894 62.1612 -0.000214049 59.159 5.75589e-08C56.1568 0.000214164 53.1841 0.597746 50.411 1.7584C47.6379 2.91905 45.1189 4.62004 42.9982 6.76401C40.8777 4.61999 38.3588 2.91898 35.5858 1.75839C32.8128 0.597791 29.8402 0.000391359 26.8381 0.000391359C23.8359 0.000391359 20.8633 0.597791 18.0903 1.75839C15.3173 2.91898 12.7985 4.61999 10.6779 6.76401C6.40162 11.0877 4 16.9462 4 23.0542C4 29.1622 6.40162 35.0208 10.6779 39.3444L41.3851 70.3251C41.8136 70.7572 42.3946 71 43.0005 71C43.6063 71 44.1873 70.7572 44.6158 70.3251L75.323 39.3444C79.5992 35.0201 82.0004 29.161 82 23.0526C81.9996 16.9442 79.5975 11.0854 75.3207 6.76171ZM42.9982 65.436L13.9063 36.085C11.3522 33.5047 9.61376 30.2183 8.91068 26.6413C8.2076 23.0643 8.57146 19.3573 9.95627 15.989C11.3411 12.6206 13.6847 9.74204 16.6907 7.71724C19.6968 5.69245 23.2304 4.6123 26.8449 4.61334C29.2459 4.60503 31.6245 5.07912 33.842 6.00798C36.0595 6.93683 38.0715 8.30186 39.7607 10.0234L41.3829 11.6601C41.8113 12.0922 42.3924 12.335 42.9982 12.335C43.604 12.335 44.1851 12.0922 44.6135 11.6601L46.2403 10.0188C47.9365 8.30441 49.9512 6.94428 52.169 6.01627C54.3868 5.08826 56.7642 4.61059 59.1652 4.61059C61.5662 4.61059 63.9436 5.08826 66.1614 6.01627C68.3792 6.94428 70.3939 8.30441 72.0901 10.0188C75.5125 13.4764 77.4348 18.1631 77.4348 23.0496C77.4348 27.9361 75.5125 32.6228 72.0901 36.0804L42.9982 65.436Z"/>
</mask>
<path d="M75.3207 6.76171C73.1997 4.61804 70.6805 2.91741 67.9073 1.75715C65.134 0.596894 62.1612 -0.000214049 59.159 5.75589e-08C56.1568 0.000214164 53.1841 0.597746 50.411 1.7584C47.6379 2.91905 45.1189 4.62004 42.9982 6.76401C40.8777 4.61999 38.3588 2.91898 35.5858 1.75839C32.8128 0.597791 29.8402 0.000391359 26.8381 0.000391359C23.8359 0.000391359 20.8633 0.597791 18.0903 1.75839C15.3173 2.91898 12.7985 4.61999 10.6779 6.76401C6.40162 11.0877 4 16.9462 4 23.0542C4 29.1622 6.40162 35.0208 10.6779 39.3444L41.3851 70.3251C41.8136 70.7572 42.3946 71 43.0005 71C43.6063 71 44.1873 70.7572 44.6158 70.3251L75.323 39.3444C79.5992 35.0201 82.0004 29.161 82 23.0526C81.9996 16.9442 79.5975 11.0854 75.3207 6.76171ZM42.9982 65.436L13.9063 36.085C11.3522 33.5047 9.61376 30.2183 8.91068 26.6413C8.2076 23.0643 8.57146 19.3573 9.95627 15.989C11.3411 12.6206 13.6847 9.74204 16.6907 7.71724C19.6968 5.69245 23.2304 4.6123 26.8449 4.61334C29.2459 4.60503 31.6245 5.07912 33.842 6.00798C36.0595 6.93683 38.0715 8.30186 39.7607 10.0234L41.3829 11.6601C41.8113 12.0922 42.3924 12.335 42.9982 12.335C43.604 12.335 44.1851 12.0922 44.6135 11.6601L46.2403 10.0188C47.9365 8.30441 49.9512 6.94428 52.169 6.01627C54.3868 5.08826 56.7642 4.61059 59.1652 4.61059C61.5662 4.61059 63.9436 5.08826 66.1614 6.01627C68.3792 6.94428 70.3939 8.30441 72.0901 10.0188C75.5125 13.4764 77.4348 18.1631 77.4348 23.0496C77.4348 27.9361 75.5125 32.6228 72.0901 36.0804L42.9982 65.436Z" fill="white"/>
<path d="M42.9982 6.76401L35.8883 13.796L42.9978 20.9843L50.1077 13.7964L42.9982 6.76401ZM10.6779 6.76401L17.7878 13.796L17.7878 13.796L10.6779 6.76401ZM10.6779 39.3444L3.56801 46.3764L3.57557 46.3841L10.6779 39.3444ZM41.3851 70.3251L34.2828 77.3647L34.2839 77.3658L41.3851 70.3251ZM44.6158 70.3251L51.7171 77.3658L51.7181 77.3647L44.6158 70.3251ZM75.323 39.3444L82.4254 46.3841L82.4336 46.3757L75.323 39.3444ZM42.9982 65.436L35.8958 72.4756L42.9987 79.6418L50.1011 72.4751L42.9982 65.436ZM13.9063 36.085L6.79915 43.1198L6.80394 43.1247L13.9063 36.085ZM26.8449 4.61334L26.842 14.6133L26.8608 14.6133L26.8796 14.6133L26.8449 4.61334ZM39.7607 10.0234L32.6227 17.0269L32.6405 17.0451L32.6583 17.0631L39.7607 10.0234ZM41.3829 11.6601L34.2805 18.6997L34.2816 18.7008L41.3829 11.6601ZM42.9982 12.335V2.33497V12.335ZM44.6135 11.6601L51.7148 18.7008L51.7159 18.6997L44.6135 11.6601ZM46.2403 10.0188L53.3426 17.0585L53.349 17.0521L46.2403 10.0188ZM59.1652 4.61059V14.6106V4.61059ZM72.0901 10.0188L64.9814 17.0521L64.983 17.0536L72.0901 10.0188ZM72.0901 36.0804L79.193 43.1195L79.1972 43.1152L72.0901 36.0804ZM82.4292 -0.271737C79.3834 -3.35007 75.761 -5.79696 71.7669 -7.46801L64.0477 10.9823C65.6 11.6318 67.016 12.5861 68.2123 13.7951L82.4292 -0.271737ZM71.7669 -7.46801C67.7726 -9.13912 63.4877 -10.0003 59.1583 -10L59.1597 10C60.8347 9.99988 62.4955 10.3329 64.0477 10.9823L71.7669 -7.46801ZM59.1583 -10C54.8289 -9.99969 50.5441 -9.1379 46.5501 -7.46621L54.2719 10.983C55.824 10.3334 57.4847 10.0001 59.1597 10L59.1583 -10ZM46.5501 -7.46621C42.5562 -5.7946 38.9341 -3.34719 35.8887 -0.268428L50.1077 13.7964C51.3038 12.5873 52.7196 11.6327 54.2719 10.983L46.5501 -7.46621ZM50.1081 -0.268008C47.0628 -3.34703 43.4406 -5.79461 39.4467 -7.46624L31.725 10.983C33.2769 11.6326 34.6925 12.587 35.8883 13.796L50.1081 -0.268008ZM39.4467 -7.46624C35.4525 -9.13795 31.1676 -9.99961 26.8381 -9.99961V10.0004C28.5128 10.0004 30.1732 10.3335 31.725 10.983L39.4467 -7.46624ZM26.8381 -9.99961C22.5085 -9.99961 18.2236 -9.13795 14.2294 -7.46624L21.9511 10.983C23.5029 10.3335 25.1633 10.0004 26.8381 10.0004V-9.99961ZM14.2294 -7.46624C10.2355 -5.79461 6.61331 -3.34703 3.56801 -0.268008L17.7878 13.796C18.9836 12.587 20.3992 11.6326 21.9511 10.983L14.2294 -7.46624ZM3.56802 -0.268012C-2.56903 5.937 -6 14.3262 -6 23.0542H14C14 19.5662 15.3723 16.2383 17.7878 13.796L3.56802 -0.268012ZM-6 23.0542C-6 31.7823 -2.56903 40.1714 3.56802 46.3764L17.7878 32.3124C15.3723 29.8701 14 26.5422 14 23.0542H-6ZM3.57557 46.3841L34.2828 77.3647L48.4875 63.2854L17.7803 32.3048L3.57557 46.3841ZM34.2839 77.3658C36.5807 79.6824 39.7143 81 43.0005 81V61C45.075 61 47.0466 61.8321 48.4864 63.2844L34.2839 77.3658ZM43.0005 81C46.2867 81 49.4203 79.6824 51.7171 77.3658L37.5145 63.2844C38.9544 61.8321 40.926 61 43.0005 61V81ZM51.7181 77.3647L82.4254 46.3841L68.2207 32.3048L37.5135 63.2854L51.7181 77.3647ZM82.4336 46.3757C88.5702 40.1699 92.0006 31.7802 92 23.0519L72 23.0533C72.0003 26.5417 70.6281 29.8702 68.2124 32.3131L82.4336 46.3757ZM92 23.0519C91.9994 14.3236 88.5678 5.93434 82.4304 -0.270613L68.2111 13.794C70.6271 16.2365 71.9998 19.5648 72 23.0533L92 23.0519ZM50.1005 58.3963L21.0086 29.0453L6.80394 43.1247L35.8958 72.4756L50.1005 58.3963ZM21.0134 29.0502C19.8499 27.8747 19.0481 26.3669 18.7229 24.7127L-0.901568 28.57C0.179443 34.0697 2.85454 39.1347 6.79915 43.1198L21.0134 29.0502ZM18.7229 24.7127C18.3977 23.058 18.5668 21.3441 19.2052 19.7914L0.707393 12.1866C-1.42386 17.3706 -1.98249 23.0707 -0.901568 28.57L18.7229 24.7127ZM19.2052 19.7914C19.8432 18.2394 20.917 16.9275 22.2773 16.0112L11.1042 -0.576753C6.45231 2.55659 2.83899 7.00171 0.707393 12.1866L19.2052 19.7914ZM22.2773 16.0112C23.6365 15.0957 25.2249 14.6129 26.842 14.6133L26.8478 -5.38666C21.236 -5.38828 15.7571 -3.71081 11.1042 -0.576753L22.2773 16.0112ZM26.8796 14.6133C27.9405 14.6096 28.9937 14.819 29.9785 15.2315L37.7055 -3.21555C34.2554 -4.66073 30.5513 -5.39956 26.8103 -5.3866L26.8796 14.6133ZM29.9785 15.2315C30.9636 15.6441 31.8632 16.2529 32.6227 17.0269L46.8987 3.01994C44.2798 0.3508 41.1555 -1.77044 37.7055 -3.21555L29.9785 15.2315ZM32.6583 17.0631L34.2805 18.6997L48.4852 4.62041L46.863 2.98379L32.6583 17.0631ZM34.2816 18.7008C36.5784 21.0173 39.712 22.335 42.9982 22.335V2.33497C45.0727 2.33497 47.0443 3.16708 48.4841 4.61934L34.2816 18.7008ZM42.9982 22.335C46.2844 22.335 49.418 21.0173 51.7148 18.7008L37.5122 4.61934C38.9521 3.16708 40.9236 2.33497 42.9982 2.33497V22.335ZM51.7159 18.6997L53.3426 17.0585L39.1379 2.97918L37.5112 4.62042L51.7159 18.6997ZM53.349 17.0521C54.1205 16.2723 55.032 15.6584 56.029 15.2412L48.3089 -3.2087C44.8703 -1.76987 41.7525 0.336521 39.1316 2.98558L53.349 17.0521ZM56.029 15.2412C57.0259 14.8241 58.0913 14.6106 59.1652 14.6106V-5.38941C55.4371 -5.38941 51.7477 -4.6476 48.3089 -3.2087L56.029 15.2412ZM59.1652 14.6106C60.239 14.6106 61.3045 14.8241 62.3013 15.2412L70.0215 -3.2087C66.5827 -4.6476 62.8933 -5.38941 59.1652 -5.38941V14.6106ZM62.3013 15.2412C63.2984 15.6584 64.2099 16.2723 64.9814 17.0521L79.1988 2.98558C76.5778 0.336521 73.46 -1.76987 70.0215 -3.2087L62.3013 15.2412ZM64.983 17.0536C66.5429 18.6296 67.4348 20.7845 67.4348 23.0496H87.4348C87.4348 15.5418 84.4821 8.32324 79.1972 2.98401L64.983 17.0536ZM67.4348 23.0496C67.4348 25.3147 66.5429 27.4696 64.983 29.0456L79.1972 43.1152C84.4821 37.776 87.4348 30.5574 87.4348 23.0496H67.4348ZM64.9872 29.0413L35.8953 58.3969L50.1011 72.4751L79.193 43.1195L64.9872 29.0413Z" fill="white" mask="url(#path-1-inside-1)"/>
</g>
<defs>
<filter id="filter0_d" x="0" y="0" width="86" height="79" filterUnits="userSpaceOnUse" color-interpolation-filters="sRGB">
<feFlood flood-opacity="0" result="BackgroundImageFix"/>
<feColorMatrix in="SourceAlpha" type="matrix" values="0 0 0 0 0 0 0 0 0 0 0 0 0 0 0 0 0 0 127 0"/>
<feOffset dy="4"/>
<feGaussianBlur stdDeviation="2"/>
<feColorMatrix type="matrix" values="0 0 0 0 0 0 0 0 0 0 0 0 0 0 0 0 0 0 0.25 0"/>
<feBlend mode="normal" in2="BackgroundImageFix" result="effect1_dropShadow"/>
<feBlend mode="normal" in="SourceGraphic" in2="effect1_dropShadow" result="shape"/>
</filter>
</defs>
</svg>
