<svg width="72" height="79" viewBox="0 0 72 79" fill="none" xmlns="http://www.w3.org/2000/svg">
<g filter="url(#filter0_d)">
<path d="M66.9661 64.6697L50.2029 47.0949C54.513 41.93 56.8746 35.4314 56.8746 28.6662C56.8746 12.8599 44.1174 0 28.4373 0C12.7572 0 0 12.8599 0 28.6662C0 44.4725 12.7572 57.3324 28.4373 57.3324C34.3238 57.3324 39.9334 55.5427 44.7294 52.1451L61.6199 69.8533C62.3259 70.5924 63.2754 71 64.293 71C65.2562 71 66.1699 70.6298 66.8635 69.9568C68.3373 68.5272 68.3843 66.1567 66.9661 64.6697ZM28.4373 7.47814C40.0273 7.47814 49.4562 16.9829 49.4562 28.6662C49.4562 40.3496 40.0273 49.8543 28.4373 49.8543C16.8472 49.8543 7.41842 40.3496 7.41842 28.6662C7.41842 16.9829 16.8472 7.47814 28.4373 7.47814Z" fill="white"/>
</g>
<defs>
<filter id="filter0_d" x="-4" y="0" width="76" height="79" filterUnits="userSpaceOnUse" color-interpolation-filters="sRGB">
<feFlood flood-opacity="0" result="BackgroundImageFix"/>
<feColorMatrix in="SourceAlpha" type="matrix" values="0 0 0 0 0 0 0 0 0 0 0 0 0 0 0 0 0 0 127 0"/>
<feOffset dy="4"/>
<feGaussianBlur stdDeviation="2"/>
<feColorMatrix type="matrix" values="0 0 0 0 0 0 0 0 0 0 0 0 0 0 0 0 0 0 0.25 0"/>
<feBlend mode="normal" in2="BackgroundImageFix" result="effect1_dropShadow"/>
<feBlend mode="normal" in="SourceGraphic" in2="effect1_dropShadow" result="shape"/>
</filter>
</defs>
</svg>
