<svg width="62" height="60" viewBox="0 0 62 60" fill="none" xmlns="http://www.w3.org/2000/svg">
<rect width="62" height="60" rx="4" fill="#E2E2E2"/>
<path d="M26.4663 17.0108C26.4663 14.5239 28.4907 12.4995 30.9776 12.4995C33.4647 12.4995 35.4894 14.5239 35.4894 17.0108V18.0228H33.8973V17.0108C33.8973 15.4005 32.5877 14.0915 30.9776 14.0915C29.3679 14.0915 28.0583 15.4006 28.0583 17.0108V18.0228H26.4663V17.0108Z" fill="#27AE60" stroke="#46B04A"/>
<path d="M31.021 47.5783C33.0573 47.5783 34.7425 46.0493 34.9892 44.0786H36.5902C36.3364 46.9285 33.9352 49.1704 31.021 49.1704H30.9346C28.0204 49.1704 25.6192 46.9285 25.3654 44.0786H26.9664C27.2131 46.0493 28.8984 47.5783 30.9346 47.5783H31.021Z" fill="#27AE60" stroke="#46B04A"/>
<path d="M47.3288 43.3648L47.3289 43.365C47.4865 43.6098 47.4975 43.9211 47.3579 44.1764L47.3577 44.1768C47.2184 44.432 46.9507 44.5911 46.6595 44.5911H15.2955C15.0044 44.5911 14.7366 44.4321 14.5968 44.1762C14.4573 43.9208 14.4685 43.6093 14.626 43.3646L14.6261 43.3643L18.3081 37.6367L18.3876 37.5132V37.3664V30.014C18.3876 22.9961 24.0402 17.2944 30.9775 17.2944C37.9143 17.2944 43.5674 22.9961 43.5674 30.014V37.3664V37.5132L43.6468 37.6367L47.3288 43.3648ZM17.2487 42.2287L16.7535 42.9991H17.6693H44.2851H45.2009L44.7057 42.2287L42.1016 38.1774C42.1016 38.1774 42.1016 38.1774 42.1016 38.1774C42.0191 38.049 41.9753 37.8996 41.9753 37.747V30.014C41.9753 23.8839 37.0483 18.8865 30.9775 18.8865C24.907 18.8865 19.9796 23.8838 19.9796 30.014V37.747C19.9796 37.8993 19.9355 38.049 19.8531 38.177L19.8529 38.1774L17.2487 42.2287Z" fill="#27AE60" stroke="#46B04A"/>
</svg>
